<?xml version="1.0" encoding="utf-8"?>
<!-- Generator: Adobe Illustrator 28.0.0, SVG Export Plug-In . SVG Version: 6.00 Build 0)  -->
<svg version="1.1" id="레이어_1" xmlns="http://www.w3.org/2000/svg" xmlns:xlink="http://www.w3.org/1999/xlink" x="0px"
	 y="0px" viewBox="0 0 60 60" style="enable-background:new 0 0 60 60;" xml:space="preserve">
<style type="text/css">
	.st0{fill:#FFFFFF;}
	.st1{fill:#17B1B2;}
	.st2{fill-rule:evenodd;clip-rule:evenodd;fill:#17B1B2;}
</style>
<path class="st0" d="M20,0h20c11,0,20,9,20,20v20c0,11-9,20-20,20H20C9,60,0,51,0,40V20C0,9,9,0,20,0z"/>
<rect x="12" y="12" class="st0" width="36" height="36"/>
<path class="st1" d="M19.3,46h21.5l1.3,2H18L19.3,46z"/>
<path class="st2" d="M16,12h28c2.2,0,4,1.8,4,4v19c0,2.2-1.8,4-4,4H34v5h-8v-5H16c-2.2,0-4-1.8-4-4V16C12,13.8,13.8,12,16,12z
	 M16,14c-1.1,0-2,0.9-2,2v18c6,0,26.5,0,32,0V16c0-1.1-0.9-2-2-2H16z"/>
<g>
	<path class="st1" d="M21.7,21.3l-2.4,3.2v-3.2H18l0,6.6c0,0,0.1,0.1,0.1,0l5.4-6.6H21.7z"/>
	<path class="st1" d="M38.3,28l2.4-3.2V28H42l0-6.6c0,0-0.1-0.1-0.1,0L36.5,28H38.3z"/>
	<rect x="24.2" y="21.3" class="st1" width="1.3" height="6.6"/>
	<path class="st1" d="M36,21.3h-3V28h1.3v-2.3H36c1.4,0,2.2-0.9,2.2-2.2C38.2,22.3,37.2,21.3,36,21.3z M35.9,24.5h-1.5v-2.1h1.5
		c0.7,0,1,0.5,1,1C36.9,24,36.6,24.5,35.9,24.5z"/>
	<path class="st1" d="M31.2,25.8c-0.3,0.6-0.8,1-1.6,1c-1.2,0-1.8-1.1-1.8-2.2c0-1.1,0.6-2.2,1.8-2.2c0.7,0,1.1,0.3,1.4,0.8l1.2-0.7
		c-0.6-0.8-1.4-1.3-2.6-1.3c-2.1,0-3.2,1.6-3.2,3.4c0,1.8,1.1,3.4,3.2,3.4c1.3,0,2.2-0.6,2.8-1.5L31.2,25.8z"/>
	<polygon class="st1" points="23.6,28 21.3,24.4 20.4,25.5 22,28 	"/>
</g>
</svg>
