<svg width="60" height="60" viewBox="0 0 60 60" fill="none" xmlns="http://www.w3.org/2000/svg">
<rect width="60" height="60" rx="20" fill="white"/>
<g filter="url(#filter0_dd_15_1917)">
<path d="M41.3322 18.8018L42.1608 18.242L42.1608 18.242L41.3322 18.8018ZM41.3322 34.7788L42.1608 35.3387L41.3322 34.7788ZM39.6251 36.467L39.0738 35.6326H39.0738L39.6251 36.467ZM33.0938 37.4961L33.0894 36.4961C32.5388 36.4985 32.0938 36.9455 32.0938 37.4961H33.0938ZM33.0938 37.4982L33.9862 37.9494C34.0569 37.8095 34.0938 37.6549 34.0938 37.4982H33.0938ZM30.8924 41.8519L31.7848 42.3032L30.8924 41.8519ZM29.1076 41.8519L28.2152 42.3032L29.1076 41.8519ZM26.9062 37.4982H25.9062C25.9062 37.6549 25.9431 37.8095 26.0138 37.9494L26.9062 37.4982ZM26.9062 37.4961H27.9062C27.9062 36.9455 27.4612 36.4985 26.9106 36.4961L26.9062 37.4961ZM20.3749 36.467L19.8236 37.3013L20.3749 36.467ZM18.6678 34.7788L19.4964 34.2189H19.4964L18.6678 34.7788ZM18.6678 18.8018L17.8392 18.242H17.8392L18.6678 18.8018ZM20.3749 17.1137L20.9262 17.948L20.9262 17.948L20.3749 17.1137ZM39.6251 17.1137L39.0738 17.948L39.0738 17.948L39.6251 17.1137ZM43.375 26.7903C43.375 24.663 43.3762 22.9913 43.2394 21.6612C43.1008 20.3137 42.8121 19.2059 42.1608 18.242L40.5036 19.3617C40.8951 19.941 41.1278 20.6791 41.2499 21.8658C41.3738 23.0699 41.375 24.6209 41.375 26.7903H43.375ZM42.1608 35.3387C42.8121 34.3747 43.1008 33.2669 43.2394 31.9194C43.3762 30.5893 43.375 28.9177 43.375 26.7903H41.375C41.375 28.9598 41.3738 30.5107 41.2499 31.7148C41.1278 32.9016 40.8951 33.6396 40.5036 34.2189L42.1608 35.3387ZM40.1764 37.3013C40.9611 36.7828 41.6355 36.1161 42.1608 35.3387L40.5036 34.2189C40.126 34.7778 39.6403 35.2583 39.0738 35.6326L40.1764 37.3013ZM33.0981 38.4961C34.7622 38.4889 36.1161 38.4577 37.2352 38.3047C38.37 38.1496 39.3279 37.8619 40.1764 37.3013L39.0738 35.6326C38.559 35.9728 37.9201 36.1925 36.9644 36.3232C35.993 36.4559 34.763 36.4889 33.0894 36.4961L33.0981 38.4961ZM34.0938 37.4982V37.4961H32.0938V37.4982H34.0938ZM31.7848 42.3032L33.9862 37.9494L32.2013 37.047L30 41.4007L31.7848 42.3032ZM28.2152 42.3032C28.9551 43.7666 31.0449 43.7666 31.7848 42.3032L30 41.4007H30L28.2152 42.3032ZM26.0138 37.9494L28.2152 42.3032L30 41.4007L27.7987 37.047L26.0138 37.9494ZM25.9062 37.4961V37.4982H27.9062V37.4961H25.9062ZM19.8236 37.3013C20.6721 37.8619 21.63 38.1496 22.7648 38.3047C23.8839 38.4577 25.2378 38.4889 26.9019 38.4961L26.9106 36.4961C25.237 36.4889 24.0069 36.4559 23.0356 36.3232C22.0799 36.1925 21.441 35.9728 20.9262 35.6326L19.8236 37.3013ZM17.8392 35.3387C18.3645 36.1161 19.0389 36.7828 19.8236 37.3013L20.9262 35.6326C20.3597 35.2583 19.874 34.7778 19.4964 34.2189L17.8392 35.3387ZM16.625 26.7903C16.625 28.9177 16.6238 30.5893 16.7606 31.9194C16.8992 33.2669 17.1879 34.3747 17.8392 35.3387L19.4964 34.2189C19.1049 33.6396 18.8722 32.9016 18.7501 31.7148C18.6262 30.5107 18.625 28.9598 18.625 26.7903H16.625ZM17.8392 18.242C17.1879 19.2059 16.8992 20.3137 16.7606 21.6612C16.6238 22.9913 16.625 24.663 16.625 26.7903H18.625C18.625 24.6209 18.6262 23.0699 18.7501 21.8658C18.8722 20.6791 19.1049 19.941 19.4964 19.3617L17.8392 18.242ZM19.8236 16.2793C19.0389 16.7978 18.3645 17.4646 17.8392 18.242L19.4964 19.3617C19.874 18.8029 20.3597 18.3223 20.9262 17.948L19.8236 16.2793ZM28.4531 15.0825C26.3012 15.0825 24.6128 15.0813 23.2698 15.2164C21.9106 15.3531 20.795 15.6375 19.8236 16.2793L20.9262 17.948C21.5155 17.5586 22.2664 17.3274 23.47 17.2063C24.6896 17.0836 26.26 17.0825 28.4531 17.0825V15.0825ZM31.5469 15.0825H28.4531V17.0825H31.5469V15.0825ZM40.1764 16.2793C39.205 15.6375 38.0894 15.3531 36.7302 15.2164C35.3872 15.0813 33.6988 15.0825 31.5469 15.0825V17.0825C33.74 17.0825 35.3104 17.0836 36.53 17.2063C37.7336 17.3274 38.4845 17.5586 39.0738 17.948L40.1764 16.2793ZM42.1608 18.242C41.6355 17.4646 40.9611 16.7978 40.1764 16.2793L39.0738 17.948C39.6403 18.3223 40.126 18.8029 40.5036 19.3617L42.1608 18.242Z" fill="#222222"/>
<ellipse cx="35.5" cy="26.9691" rx="1.375" ry="1.36083" fill="#222222"/>
<ellipse cx="30" cy="26.9691" rx="1.375" ry="1.36083" fill="#222222"/>
<ellipse cx="24.5" cy="26.9691" rx="1.375" ry="1.36083" fill="#222222"/>
</g>
<defs>
<filter id="filter0_dd_15_1917" x="9.5" y="12" width="41" height="40.6598" filterUnits="userSpaceOnUse" color-interpolation-filters="sRGB">
<feFlood flood-opacity="0" result="BackgroundImageFix"/>
<feColorMatrix in="SourceAlpha" type="matrix" values="0 0 0 0 0 0 0 0 0 0 0 0 0 0 0 0 0 0 127 0" result="hardAlpha"/>
<feOffset dy="4"/>
<feGaussianBlur stdDeviation="2"/>
<feComposite in2="hardAlpha" operator="out"/>
<feColorMatrix type="matrix" values="0 0 0 0 0 0 0 0 0 0 0 0 0 0 0 0 0 0 0.25 0"/>
<feBlend mode="normal" in2="BackgroundImageFix" result="effect1_dropShadow_15_1917"/>
<feColorMatrix in="SourceAlpha" type="matrix" values="0 0 0 0 0 0 0 0 0 0 0 0 0 0 0 0 0 0 127 0" result="hardAlpha"/>
<feOffset dy="4"/>
<feGaussianBlur stdDeviation="2"/>
<feComposite in2="hardAlpha" operator="out"/>
<feColorMatrix type="matrix" values="0 0 0 0 0 0 0 0 0 0 0 0 0 0 0 0 0 0 0.25 0"/>
<feBlend mode="normal" in2="effect1_dropShadow_15_1917" result="effect2_dropShadow_15_1917"/>
<feBlend mode="normal" in="SourceGraphic" in2="effect2_dropShadow_15_1917" result="shape"/>
</filter>
</defs>
</svg>
