<svg width="60" height="60" viewBox="0 0 60 60" fill="none" xmlns="http://www.w3.org/2000/svg">
<rect width="60" height="60" rx="20" fill="white"/>
<circle cx="30" cy="30" r="13.5" stroke="#222222" stroke-width="2"/>
<path d="M31.2993 38.25C31.2993 39.0784 30.6278 39.75 29.7993 39.75C28.9709 39.75 28.2993 39.0784 28.2993 38.25C28.2993 37.4216 28.9709 36.75 29.7993 36.75C30.6278 36.75 31.2993 37.4216 31.2993 38.25Z" fill="#222222"/>
<path d="M30 34.5V33.4919C30 32.4638 30.5424 31.5119 31.4268 30.9878L32.4182 30.4003C33.7087 29.6356 34.5 28.2468 34.5 26.7468V26.7468C34.5 24.4014 32.5986 22.5 30.2532 22.5H29.5C27.2909 22.5 25.5 24.2909 25.5 26.5V26.5" stroke="#222222" stroke-width="2"/>
</svg>
