<svg width="60" height="60" viewBox="0 0 60 60" fill="none" xmlns="http://www.w3.org/2000/svg">
<rect width="60" height="60" rx="20" fill="white"/>
<path fill-rule="evenodd" clip-rule="evenodd" d="M43 14H17V46H43V14ZM15 12V48H45V12H15Z" fill="#17B1B2"/>
<path d="M20 37H40V39H20V37Z" fill="#17B1B2"/>
<path d="M20 41.5H40V43.5H20V41.5Z" fill="#17B1B2"/>
<path d="M21 17C21 17.5523 20.5523 18 20 18C19.4477 18 19 17.5523 19 17C19 16.4477 19.4477 16 20 16C20.5523 16 21 16.4477 21 17Z" fill="#17B1B2"/>
<path d="M41 17C41 17.5523 40.5523 18 40 18C39.4477 18 39 17.5523 39 17C39 16.4477 39.4477 16 40 16C40.5523 16 41 16.4477 41 17Z" fill="#17B1B2"/>
<path fill-rule="evenodd" clip-rule="evenodd" d="M30 34C34.4183 34 38 30.4183 38 26C38 21.5817 34.4183 18 30 18C25.5817 18 22 21.5817 22 26C22 30.4183 25.5817 34 30 34ZM30 35C34.9706 35 39 30.9706 39 26C39 21.0294 34.9706 17 30 17C25.0294 17 21 21.0294 21 26C21 30.9706 25.0294 35 30 35Z" fill="#17B1B2"/>
<path fill-rule="evenodd" clip-rule="evenodd" d="M39 26C39 30.9706 34.9706 35 30 35C25.0294 35 21 30.9706 21 26C21 21.0294 25.0294 17 30 17C34.9706 17 39 21.0294 39 26ZM29.5766 20.551C28.5168 20.8624 27.6001 21.7136 27.6001 22.8182V23.2025C27.5742 23.1932 27.5475 23.1884 27.5203 23.1884C27.2718 23.1884 27.0703 23.5913 27.0703 24.0884C27.0703 24.5854 27.2718 25.1479 27.5203 25.1479C27.567 25.1479 27.6121 25.128 27.6544 25.0925C27.7732 25.7292 28.0795 26.281 28.5 26.6601V28.0596L24.6621 29.4373C24.5319 29.4841 24.4158 29.556 24.3187 29.6464C25.5195 31.5134 27.6153 32.75 30 32.75C32.2982 32.75 34.3281 31.6015 35.5471 29.8471C35.4307 29.6615 35.2538 29.5148 35.0379 29.4373L31.2 28.0596V26.6603C31.5998 26.2999 31.8963 25.7835 32.0267 25.1864C32.0541 25.2006 32.0824 25.2082 32.1113 25.2082C32.3598 25.2082 32.5613 24.6457 32.5613 24.1487C32.5613 23.6516 32.3598 23.2487 32.1113 23.2487L32.1001 23.2489V22.7832C32.1001 21.7824 31.7561 20.771 30.9309 20.2047C30.8223 20.1302 30.7112 20.0606 30.6001 20C30.3666 20.2547 29.9877 20.4302 29.5766 20.551Z" fill="#17B1B2"/>
</svg>
