<svg width="60" height="60" viewBox="0 0 60 60" fill="none" xmlns="http://www.w3.org/2000/svg">
<rect width="60" height="60" rx="20" fill="white"/>
<path d="M24 30L24 24C24 20.6863 26.6863 18 30 18V18C33.3137 18 36 20.6863 36 24L36 30" stroke="#7030A0" stroke-width="2" stroke-linecap="round"/>
<path d="M17.6943 29.1678C17.8394 27.4269 17.912 26.5565 18.486 26.0282C19.0601 25.5 19.9336 25.5 21.6805 25.5H38.3195C40.0664 25.5 40.9399 25.5 41.514 26.0282C42.088 26.5565 42.1606 27.4269 42.3057 29.1678L43.3195 41.3339C43.404 42.3474 43.4462 42.8542 43.1491 43.1771C42.852 43.5 42.3435 43.5 41.3264 43.5H18.6736C17.6565 43.5 17.148 43.5 16.8509 43.1771C16.5538 42.8542 16.596 42.3474 16.6805 41.3339L17.6943 29.1678Z" stroke="#7030A0" stroke-width="2"/>
</svg>
