<svg width="60" height="60" viewBox="0 0 60 60" fill="none" xmlns="http://www.w3.org/2000/svg">
<rect width="60" height="60" rx="20" fill="white"/>
<rect x="12" y="12" width="36" height="36" fill="white"/>
<path fill-rule="evenodd" clip-rule="evenodd" d="M17 16H43V30H41V18H19V30H17V16Z" fill="#7030A0"/>
<path fill-rule="evenodd" clip-rule="evenodd" d="M29.6453 12L33.4944 14.8019H30.0961L29.6817 14.5003L29.269 14.8194H26L29.6453 12Z" fill="#7030A0"/>
<path d="M35.78 25.555C35.78 26.025 35.72 26.485 35.6 26.935C35.49 27.385 35.32 27.795 35.09 28.165C34.8601 28.525 34.57 28.815 34.22 29.035C33.88 29.255 33.485 29.365 33.035 29.365C32.665 29.365 32.33 29.285 32.03 29.125C31.74 28.955 31.52 28.73 31.37 28.45H31.25C31.04 28.7 30.77 28.915 30.44 29.095C30.12 29.275 29.74 29.365 29.3 29.365C28.39 29.365 27.695 29.095 27.215 28.555C26.745 28.015 26.51 27.305 26.51 26.425C26.51 25.755 26.65 25.16 26.93 24.64C27.22 24.12 27.635 23.715 28.175 23.425C28.725 23.125 29.38 22.975 30.14 22.975C30.62 22.975 31.105 23.02 31.595 23.11C32.085 23.2 32.48 23.295 32.78 23.395L32.63 26.47C32.62 26.67 32.615 26.87 32.615 27.07C32.615 27.4 32.66 27.625 32.75 27.745C32.84 27.855 32.95 27.91 33.08 27.91C33.28 27.91 33.45 27.805 33.59 27.595C33.73 27.375 33.835 27.085 33.905 26.725C33.975 26.365 34.01 25.97 34.01 25.54C34.01 24.35 33.665 23.42 32.975 22.75C32.285 22.07 31.35 21.73 30.17 21.73C29.14 21.73 28.275 21.94 27.575 22.36C26.885 22.78 26.36 23.36 26 24.1C25.65 24.84 25.475 25.68 25.475 26.62C25.475 27.9 25.82 28.9 26.51 29.62C27.21 30.33 28.235 30.685 29.585 30.685C30.155 30.685 30.765 30.62 31.415 30.49C32.065 30.36 32.67 30.195 33.23 29.995V31.525C32.73 31.735 32.175 31.9 31.565 32.02C30.965 32.14 30.33 32.2 29.66 32.2C28.41 32.2 27.335 31.975 26.435 31.525C25.545 31.085 24.86 30.45 24.38 29.62C23.91 28.79 23.675 27.795 23.675 26.635C23.675 25.735 23.825 24.895 24.125 24.115C24.435 23.335 24.87 22.655 25.43 22.075C26 21.495 26.68 21.045 27.47 20.725C28.27 20.395 29.16 20.23 30.14 20.23C31.25 20.23 32.225 20.445 33.065 20.875C33.915 21.305 34.58 21.92 35.06 22.72C35.54 23.51 35.78 24.455 35.78 25.555ZM28.37 26.44C28.37 26.96 28.47 27.335 28.67 27.565C28.88 27.795 29.155 27.91 29.495 27.91C29.955 27.91 30.275 27.74 30.455 27.4C30.645 27.05 30.76 26.545 30.8 25.885L30.89 24.49C30.78 24.47 30.67 24.455 30.56 24.445C30.46 24.435 30.345 24.43 30.215 24.43C29.775 24.43 29.42 24.525 29.15 24.715C28.88 24.905 28.68 25.155 28.55 25.465C28.43 25.765 28.37 26.09 28.37 26.44Z" fill="#7030A0"/>
<path fill-rule="evenodd" clip-rule="evenodd" d="M17 16H43V30H41V18H19V30H17V16Z" fill="#7030A0"/>
<path fill-rule="evenodd" clip-rule="evenodd" d="M46 28.1791L30.5947 38.8227L29.4579 37.1772L45.2924 26.237L41.3977 23.2982L42.6023 21.7017L48 25.7745V48H41.5V46H46V28.1791Z" fill="#7030A0"/>
<path fill-rule="evenodd" clip-rule="evenodd" d="M14 28.2773L38.8732 46H14V28.2773ZM14.6815 26.3071L45.1268 48H12V25.8438L17.3912 21.7067L18.6088 23.2933L14.6815 26.3071Z" fill="#7030A0"/>
</svg>
