<svg width="60" height="60" viewBox="0 0 60 60" fill="none" xmlns="http://www.w3.org/2000/svg">
<rect width="60" height="60" rx="20" fill="white"/>
<path fill-rule="evenodd" clip-rule="evenodd" d="M27 34.1599L32.2886 29.9312L44 29.9312C46.2091 29.9312 48 28.1403 48 25.9312L48 16C48 13.7908 46.2091 12 44 12L31 12C28.7909 12 27 13.7908 27 16L27 34.1599ZM31.5873 27.9312L29 30L29 16C29 14.8954 29.8954 14 31 14L44 14C45.1046 14 46 14.8954 46 16L46 25.9312C46 27.0357 45.1046 27.9312 44 27.9312L31.5873 27.9312Z" fill="#EB8C00"/>
<path d="M34 20.5C34 21.3284 33.3284 22 32.5 22C31.6716 22 31 21.3284 31 20.5C31 19.6716 31.6716 19 32.5 19C33.3284 19 34 19.6716 34 20.5Z" fill="#EB8C00"/>
<path d="M39 20.5C39 21.3284 38.3284 22 37.5 22C36.6716 22 36 21.3284 36 20.5C36 19.6716 36.6716 19 37.5 19C38.3284 19 39 19.6716 39 20.5Z" fill="#EB8C00"/>
<path d="M44 20.5C44 21.3284 43.3284 22 42.5 22C41.6716 22 41 21.3284 41 20.5C41 19.6716 41.6716 19 42.5 19C43.3284 19 44 19.6716 44 20.5Z" fill="#EB8C00"/>
<path fill-rule="evenodd" clip-rule="evenodd" d="M16.7943 23.0585C16.0343 23.0462 15.4211 23.119 14.9387 23.3315C14.7534 23.4132 14.5869 23.5325 14.45 23.6821C14.3131 23.8317 14.2088 24.0082 14.1439 24.2004C14.0797 24.3905 14.0554 24.5917 14.0726 24.7916C14.466 28.4736 15.7227 32.0115 17.741 35.119L17.7459 35.1266C19.5798 38.0052 22.0264 40.4455 24.9119 42.2744L24.92 42.2795C28.0206 44.2851 31.5489 45.5379 35.2222 45.9377C35.4217 45.9546 35.6227 45.9302 35.8126 45.8662C36.0051 45.8013 36.182 45.6969 36.332 45.5596C36.482 45.4224 36.6018 45.2552 36.6835 45.0688C36.8896 44.5985 36.9503 43.9619 36.9283 43.1605C36.9185 42.8018 36.8937 42.4402 36.8681 42.0653C36.8657 42.0309 36.8634 41.9965 36.861 41.9619C36.8338 41.5613 36.8065 41.139 36.8062 40.7416C36.8058 40.3065 36.7602 40.1608 36.737 40.1047C36.7111 40.0422 36.6771 39.9903 36.4599 39.7346C36.2288 39.4626 35.9064 39.2849 35.5538 39.2343C34.2807 39.0664 33.0306 38.7556 31.8275 38.3078L31.8251 38.3069C31.564 38.209 31.2803 38.1879 31.0076 38.2459C30.7357 38.3037 30.4858 38.4379 30.2873 38.633C30.2867 38.6336 30.2861 38.6342 30.2855 38.6348L28.7055 40.2107C28.3763 40.5391 27.8669 40.6076 27.4619 40.3779C24.1775 38.5151 21.4583 35.8027 19.591 32.5272C19.3618 32.1252 19.4303 31.6204 19.7583 31.2932L21.3401 29.7155C21.5357 29.5175 21.6708 29.2676 21.729 28.9951C21.7875 28.7217 21.7661 28.4373 21.6676 28.1758L21.6667 28.1735C21.2179 26.9739 20.9065 25.7276 20.7382 24.4583C20.6876 24.1085 20.5118 23.7893 20.2439 23.5595C20.1133 23.4474 20.0171 23.3427 19.9534 23.269C19.9473 23.268 19.9409 23.267 19.9341 23.266C19.7925 23.2448 19.5642 23.2243 19.1853 23.2061C18.8018 23.1876 18.4619 23.1606 18.1349 23.1347C17.69 23.0995 17.269 23.0662 16.7943 23.0585ZM18.4271 21.0931C18.7448 21.1171 19.0412 21.1396 19.2854 21.1514C19.6817 21.1705 19.9941 21.1947 20.2418 21.2318C20.4842 21.2681 20.7408 21.3268 20.9803 21.4565C21.2438 21.5991 21.3976 21.7814 21.471 21.8685L21.4719 21.8696C21.4765 21.875 21.4808 21.8802 21.485 21.8851C21.5395 21.9498 21.5549 21.9681 21.5937 22.0014C22.2427 22.5581 22.6661 23.3307 22.7858 24.1751L22.7871 24.1845C22.9349 25.3019 23.2088 26.399 23.6037 27.4549C23.8403 28.0836 23.8914 28.7665 23.751 29.4232C23.6105 30.0803 23.284 30.6838 22.8099 31.162L22.8059 31.1661L21.7887 32.1807C23.3125 34.6144 25.3725 36.6696 27.8116 38.1897L28.8261 37.1778L28.8302 37.1738C29.3097 36.7008 29.9153 36.3747 30.5754 36.2342C31.2353 36.0939 31.9216 36.145 32.553 36.3816C33.6111 36.7753 34.7104 37.0483 35.8299 37.1956L35.8392 37.1968C36.6968 37.3175 37.4795 37.7484 38.0386 38.4066C38.0489 38.4187 38.0595 38.4311 38.0703 38.4438C38.2468 38.6508 38.4877 38.9333 38.6482 39.3207C38.8211 39.7382 38.873 40.1947 38.8734 40.74C38.8737 41.0587 38.8958 41.4153 38.9236 41.8229C38.926 41.8584 38.9284 41.8942 38.9309 41.9304C38.9561 42.2984 38.9837 42.7015 38.9948 43.1044C39.0186 43.9711 38.9742 44.988 38.5783 45.8913C38.3817 46.3398 38.0932 46.7426 37.7313 47.0738C37.3694 47.405 36.9419 47.6573 36.4763 47.8144C36.0106 47.9715 35.5171 48.0298 35.0275 47.9857L35.0088 47.9839C31.0112 47.5506 27.1713 46.1885 23.7974 44.007C20.6586 42.0167 17.9974 39.3622 16.0023 36.2318C13.8078 32.8516 12.4422 29.0036 12.0159 24.9993L12.0143 24.9833C11.9703 24.4974 12.0282 24.0077 12.1843 23.5452C12.3405 23.0828 12.5915 22.6576 12.9216 22.297C13.2517 21.9363 13.6536 21.648 14.1018 21.4505C14.992 21.0583 15.9611 20.9876 16.8279 21.0016C17.327 21.0097 17.9057 21.0536 18.4271 21.0931Z" fill="#EB8C00"/>
</svg>
