<svg width="60" height="60" viewBox="0 0 60 60" fill="none" xmlns="http://www.w3.org/2000/svg">
<rect width="60" height="60" rx="20" fill="white"/>
<path fill-rule="evenodd" clip-rule="evenodd" d="M33.5 18.5H20.5V20.5H33.5V18.5ZM19 17V22H35V17H19Z" fill="#17B1B2"/>
<path fill-rule="evenodd" clip-rule="evenodd" d="M12 17C12 14.2386 14.2386 12 17 12H40V28.0448C39.6706 28.0152 39.3371 28 39 28C38.6629 28 38.3294 28.0152 38 28.0448V14H17C15.3431 14 14 15.3431 14 17V35.2572C14.9509 34.4718 16.1704 34 17.5 34H29.1994C28.9537 34.4806 28.7424 34.9817 28.5685 35.5H17.5C15.2909 35.5 13.5 37.2909 13.5 39.5C13.5 41.7091 15.2909 43.5 17.5 43.5H28.9596C29.1943 44.0229 29.4687 44.5242 29.7789 45H17.5C14.6208 45 12.2584 42.7877 12.0198 39.9703L12 40V39.5V17ZM28.0702 40.25C28.1281 40.7614 28.221 41.2623 28.3465 41.75H16V40.25H28.0702ZM28.1384 37.25C28.0601 37.74 28.0141 38.2407 28.0028 38.75H16V37.25H28.1384Z" fill="#17B1B2"/>
<path fill-rule="evenodd" clip-rule="evenodd" d="M46.3125 39C46.3125 43.0386 43.0386 46.3125 39 46.3125C34.9614 46.3125 31.6875 43.0386 31.6875 39C31.6875 34.9614 34.9614 31.6875 39 31.6875C43.0386 31.6875 46.3125 34.9614 46.3125 39ZM48 39C48 43.9706 43.9706 48 39 48C34.0294 48 30 43.9706 30 39C30 34.0294 34.0294 30 39 30C43.9706 30 48 34.0294 48 39ZM38.0069 43.3616L43.7591 36.6508L42.2406 35.3492L37.7071 40.6383L34.5993 38.3107L33.4004 39.9115L38.0069 43.3616Z" fill="#17B1B2"/>
</svg>
