<svg width="60" height="60" viewBox="0 0 60 60" fill="none" xmlns="http://www.w3.org/2000/svg">
<rect width="60" height="60" rx="20" fill="white"/>
<path d="M21.6718 23.9541C21.707 23.6373 21.7246 23.4789 21.7446 23.3418C22.3044 19.5164 25.5196 16.6387 29.3833 16.5048C29.5218 16.5 29.6812 16.5 30 16.5V16.5C30.3188 16.5 30.4782 16.5 30.6167 16.5048C34.4804 16.6387 37.6956 19.5164 38.2554 23.3418C38.2754 23.4789 38.293 23.6373 38.3282 23.9541L38.7059 27.3535C38.8067 28.2603 38.8571 28.7137 38.9572 29.1543C39.0779 29.6855 39.2526 30.2029 39.4785 30.6986C39.6659 31.1098 39.9006 31.501 40.37 32.2834L41.6826 34.471C42.4884 35.8139 42.8912 36.4854 42.604 36.9927C42.3168 37.5 41.5337 37.5 39.9676 37.5H20.0324C18.4663 37.5 17.6832 37.5 17.396 36.9927C17.1088 36.4854 17.5116 35.8139 18.3174 34.471L19.63 32.2834C20.0994 31.501 20.3341 31.1098 20.5215 30.6986C20.7474 30.2029 20.9221 29.6855 21.0428 29.1543C21.1429 28.7137 21.1933 28.2603 21.2941 27.3535L21.6718 23.9541Z" stroke="#0070C0" stroke-width="2"/>
<path d="M25.6533 38.497C25.9097 39.9323 26.4747 41.2006 27.2606 42.1051C28.0465 43.0097 29.0094 43.5 30 43.5C30.9906 43.5 31.9535 43.0097 32.7394 42.1051C33.5253 41.2006 34.0903 39.9323 34.3467 38.497" stroke="#0070C0" stroke-width="2" stroke-linecap="round"/>
</svg>
