<svg width="60" height="60" viewBox="0 0 60 60" fill="none" xmlns="http://www.w3.org/2000/svg">
<rect width="60" height="60" rx="20" fill="white"/>
<rect x="12" y="12" width="36" height="36" fill="white"/>
<path fill-rule="evenodd" clip-rule="evenodd" d="M30 23C27.7909 23 26 24.7909 26 27C26 29.2091 27.7909 31 30 31C32.2091 31 34 29.2091 34 27C34 24.7909 32.2091 23 30 23ZM24 27C24 23.6863 26.6863 21 30 21C33.3137 21 36 23.6863 36 27C36 30.3137 33.3137 33 30 33C26.6863 33 24 30.3137 24 27Z" fill="#F64B56"/>
<path fill-rule="evenodd" clip-rule="evenodd" d="M30 14C21.1634 14 14 21.1634 14 30C14 38.8366 21.1634 46 30 46C38.8366 46 46 38.8366 46 30C46 21.1634 38.8366 14 30 14ZM12 30C12 20.0589 20.0589 12 30 12C39.9411 12 48 20.0589 48 30C48 39.9411 39.9411 48 30 48C20.0589 48 12 39.9411 12 30Z" fill="#F64B56"/>
<path fill-rule="evenodd" clip-rule="evenodd" d="M22.5306 37.108C24.6902 35.7337 27.3156 35 30 35C32.6845 35 35.3099 35.7337 37.4695 37.108C39.6303 38.4831 41.2227 40.4367 41.9516 42.6926C42.1214 43.2181 41.833 43.7818 41.3075 43.9516C40.7819 44.1214 40.2183 43.833 40.0485 43.3074C39.4797 41.5469 38.2126 39.9515 36.3958 38.7953C34.5777 37.6384 32.3294 37 30 37C27.6707 37 25.4224 37.6384 23.6043 38.7953C21.7874 39.9515 20.5204 41.5469 19.9516 43.3074C19.7818 43.833 19.2181 44.1214 18.6926 43.9516C18.167 43.7818 17.8787 43.2181 18.0485 42.6925C18.7773 40.4367 20.3697 38.4831 22.5306 37.108Z" fill="#F64B56"/>
</svg>
