<svg width="60" height="60" viewBox="0 0 60 60" fill="none" xmlns="http://www.w3.org/2000/svg">
<rect width="60" height="60" rx="20" fill="white"/>
<path d="M46.2686 21.0587C45.8661 19.4611 44.68 18.203 43.1741 17.7759C40.4449 17 29.5 17 29.5 17C29.5 17 18.5551 17 15.8258 17.7759C14.3197 18.203 13.1337 19.4611 12.7312 21.0587C12 23.9544 12 29.996 12 29.996C12 29.996 12 36.0375 12.7312 38.9333C13.1337 40.531 14.3197 41.7891 15.8258 42.2162C18.5551 42.9921 29.5 42.9921 29.5 42.9921C29.5 42.9921 40.4449 42.9921 43.1741 42.2162C44.68 41.7891 45.8661 40.531 46.2686 38.9333C47 36.0375 47 29.996 47 29.996C47 29.996 47 23.9544 46.2686 21.0587Z" fill="#FF0000"/>
<path d="M26.2188 35.4203V24.1195L34.9688 29.7701L26.2188 35.4203Z" fill="white"/>
</svg>
