<svg width="60" height="60" viewBox="0 0 60 60" fill="none" xmlns="http://www.w3.org/2000/svg">
<rect width="60" height="60" rx="20" fill="white"/>
<path fill-rule="evenodd" clip-rule="evenodd" d="M12 15.0025C12 13.3443 13.3443 12 15.0025 12H39.0226C40.6809 12 42.0251 13.3443 42.0251 15.0025V28.2635C42.0251 28.2635 40.8757 27.513 39.8749 28.2635C39.8749 28.0134 40.0235 28.1932 40.0235 28.151C40.0235 26.2553 40.0235 15.0025 40.0235 15.0025C40.0235 14.4498 39.5754 14.0017 39.0226 14.0017H15.0025C14.4498 14.0017 14.0017 14.4498 14.0017 15.0025V39.0226C14.0017 39.5754 14.4498 40.0235 15.0025 40.0235H33.518L32.0168 42.0251H15.0025C13.3443 42.0251 12 40.6809 12 39.0226V15.0025Z" fill="#7030A0"/>
<path fill-rule="evenodd" clip-rule="evenodd" d="M38.5222 29.0142H13.5012V27.0126H42.0251L38.5222 29.0142Z" fill="#7030A0"/>
<path fill-rule="evenodd" clip-rule="evenodd" d="M26.5121 41.0243V14.0017H28.5138V41.0243H26.5121Z" fill="#7030A0"/>
<path fill-rule="evenodd" clip-rule="evenodd" d="M22.3014 37.7287L17.2972 32.7245L18.7126 31.3091L23.7168 36.3133L22.3014 37.7287Z" fill="#7030A0"/>
<path fill-rule="evenodd" clip-rule="evenodd" d="M24.0811 21.5437L17.0042 21.5437L17.0042 19.542L24.0811 19.542L24.0811 21.5437Z" fill="#7030A0"/>
<path fill-rule="evenodd" clip-rule="evenodd" d="M31.0159 22.0084L31.0159 20.0067L38.0924 20.0067L38.0928 22.0084L31.0159 22.0084Z" fill="#7030A0"/>
<path fill-rule="evenodd" clip-rule="evenodd" d="M17.2972 36.3133L22.3014 31.3091L23.7168 32.7245L18.7126 37.7287L17.2972 36.3133Z" fill="#7030A0"/>
<path fill-rule="evenodd" clip-rule="evenodd" d="M19.5419 24.0811L19.5419 17.0042L21.5436 17.0042L21.5436 24.0811L19.5419 24.0811Z" fill="#7030A0"/>
<path fill-rule="evenodd" clip-rule="evenodd" d="M40.9078 29.5146C41.4605 29.5146 41.9086 29.9627 41.9086 30.5155V31.6093C44.4014 32.0783 46.2873 34.2668 46.2873 36.8958V38.5736C46.2873 39.7286 46.7323 40.8393 47.5298 41.6748C48.5548 42.7485 47.7937 44.5272 46.3092 44.5272H35.5063C34.0219 44.5272 33.2608 42.7485 34.2857 41.6748C35.0833 40.8393 35.5283 39.7286 35.5283 38.5736V36.8958C35.5283 34.2668 37.4142 32.0783 39.9069 31.6093V30.5155C39.9069 29.9627 40.355 29.5146 40.9078 29.5146ZM40.9078 33.518C39.0422 33.518 37.5299 35.0303 37.5299 36.8958V38.5736C37.5299 40.0089 37.0546 41.3969 36.1888 42.5255H45.6268C44.7609 41.3969 44.2856 40.0089 44.2856 38.5736V36.8958C44.2856 35.0303 42.7733 33.518 40.9078 33.518Z" fill="#7030A0"/>
<path fill-rule="evenodd" clip-rule="evenodd" d="M43.3791 46.8409C42.7737 47.5376 41.9527 47.9996 41.0242 47.9996C40.0957 47.9996 39.2747 47.5376 38.6693 46.8408C38.3068 46.4236 38.3512 45.7914 38.7685 45.4289C39.1857 45.0664 39.8179 45.1108 40.1804 45.528C40.4927 45.8875 40.7961 45.998 41.0242 45.998C41.2523 45.998 41.5557 45.8875 41.868 45.528C42.2305 45.1108 42.8627 45.0664 43.2799 45.4289C43.6972 45.7915 43.7416 46.4236 43.3791 46.8409Z" fill="#7030A0"/>
</svg>
