<svg width="60" height="60" viewBox="0 0 60 60" fill="none" xmlns="http://www.w3.org/2000/svg">
<rect width="60" height="60" rx="20" fill="white"/>
<path fill-rule="evenodd" clip-rule="evenodd" d="M26 39H33.5V48H45V12H15V48H26V39ZM24 46V37H35.5V46H43V14H17V46H24Z" fill="#53559F"/>
<path fill-rule="evenodd" clip-rule="evenodd" d="M31 34V37H29V34H31Z" fill="#53559F"/>
<path fill-rule="evenodd" clip-rule="evenodd" d="M15.3162 19.7705L23.3162 12.2705L24.684 13.7296L16.684 21.2296L15.3162 19.7705Z" fill="#53559F"/>
<path fill-rule="evenodd" clip-rule="evenodd" d="M44.6838 19.7705L36.6838 12.2705L35.316 13.7296L43.316 21.2296L44.6838 19.7705Z" fill="#53559F"/>
<path fill-rule="evenodd" clip-rule="evenodd" d="M15.3196 25.2672L29.3196 12.2672L30.6805 13.7328L16.6805 26.7328L15.3196 25.2672Z" fill="#53559F"/>
<path fill-rule="evenodd" clip-rule="evenodd" d="M44.6804 25.2672L30.6804 12.2672L29.3195 13.7328L43.3195 26.7328L44.6804 25.2672Z" fill="#53559F"/>
<path fill-rule="evenodd" clip-rule="evenodd" d="M32.9964 30.7123L32.9975 30.6574C32.9992 30.575 33 30.4893 33 30.4C33 28.8368 32.1486 27.2633 30.606 26.0151C29.9277 25.4662 29.1486 25.0101 28.318 24.6714C28.3974 25.8025 28.1514 26.8318 27.8112 27.6842L27.6125 28.1819L27.1916 28.5136C26.4332 29.1114 26 29.9605 26 30.8667C26 32.4694 27.4348 34 29.5 34C30.8363 34 31.9493 33.3352 32.5357 32.4249L32.6479 32.2507L32.7813 32.1155C32.8033 32.0787 32.8921 31.9026 32.9495 31.4193L32.9548 31.3741L32.9623 31.3292C32.987 31.1793 33 31.025 33 30.8667C33 30.8333 32.9994 30.8002 32.9983 30.7672L32.9964 30.7123ZM32.7762 32.1233C32.7762 32.1232 32.7769 32.122 32.7786 32.1199C32.7771 32.1223 32.7762 32.1233 32.7762 32.1233ZM26.2059 24.09C26.029 23.403 25.6543 22.6979 25.0001 22C25.9005 22 26.8028 22.1234 27.6768 22.3531C31.6277 23.3913 35 26.6012 35 30.4C35 30.502 34.9991 30.6014 34.9971 30.6982C34.999 30.7541 35 30.8103 35 30.8667C35 31.1348 34.978 31.3981 34.9355 31.6551C34.8306 32.5393 34.5957 33.1244 34.217 33.5081C33.2551 35.0011 31.5025 36 29.5 36C26.4624 36 24 33.7017 24 30.8667C24 29.2928 24.7588 27.8844 25.9537 26.9428C26.2953 26.0869 26.468 25.1084 26.2059 24.09Z" fill="#53559F"/>
</svg>
