<svg width="60" height="60" viewBox="0 0 60 60" fill="none" xmlns="http://www.w3.org/2000/svg">
<rect width="60" height="60" rx="20" fill="white"/>
<rect x="12" y="12" width="36" height="36" fill="white"/>
<path d="M19.2732 46H40.7268L42 48H18L19.2732 46Z" fill="#0070C0"/>
<path fill-rule="evenodd" clip-rule="evenodd" d="M16 12H44C46.2091 12 48 13.7909 48 16V35C48 37.2091 46.2091 39 44 39H34V44H26V39H16C13.7909 39 12 37.2091 12 35V16C12 13.7909 13.7909 12 16 12ZM16 14C14.8954 14 14 14.8954 14 16V34C20 34 40.5 34 46 34V16C46 14.8954 45.1046 14 44 14H16Z" fill="#0070C0"/>
<path d="M26.2935 27.8353V23.5375H27.3652V27.8353H26.2935Z" fill="#0070C0"/>
<path d="M32.522 27.7249C32.125 27.816 31.7193 27.8634 31.312 27.8663C30.8021 27.872 30.2948 27.7916 29.8116 27.6285C29.4031 27.49 29.0429 27.237 28.774 26.8995C28.5191 26.5632 28.3875 26.1494 28.4012 25.7276C28.3943 25.4016 28.4601 25.0782 28.5938 24.781C28.7244 24.5051 28.9187 24.2642 29.1608 24.0784C29.4298 23.8827 29.7326 23.7384 30.0539 23.6525C30.4327 23.5507 30.8236 23.5011 31.2157 23.5048C31.4331 23.5073 31.65 23.5244 31.865 23.5561C32.0795 23.59 32.2921 23.6352 32.5018 23.6914L32.4117 24.4266C32.0521 24.2687 31.6628 24.1898 31.2701 24.195C30.9566 24.1873 30.6453 24.2488 30.3583 24.3753C30.1134 24.4811 29.9041 24.6555 29.7557 24.8773C29.6112 25.0995 29.5366 25.3599 29.5413 25.625C29.5383 25.8332 29.5807 26.0395 29.6656 26.2296C29.7535 26.4141 29.8782 26.5786 30.0322 26.713C30.2023 26.8581 30.3999 26.9675 30.6131 27.0348C30.8549 27.1099 31.107 27.1471 31.3602 27.1451C31.7409 27.1414 32.1189 27.0806 32.4816 26.9648L32.522 27.7249Z" fill="#0070C0"/>
<path d="M34.459 25.5412V24.1951C34.7417 24.1951 34.9762 24.2138 35.1564 24.2324C35.3243 24.2528 35.4844 24.3148 35.6223 24.4127C35.6895 24.4662 35.7423 24.5355 35.7759 24.6145C35.8096 24.6935 35.823 24.7796 35.815 24.8651C35.8207 24.9501 35.8063 25.0353 35.7728 25.1136C35.7393 25.192 35.6878 25.2613 35.6223 25.3158C35.4823 25.4195 35.3172 25.4839 35.1439 25.5023C34.9167 25.5302 34.6879 25.5432 34.459 25.5412ZM34.459 26.2049C34.6593 26.2049 34.8178 26.2173 34.9249 26.2173C35.435 26.2402 35.9418 26.1242 36.3912 25.8816C36.5728 25.7788 36.7222 25.6273 36.8223 25.4441C36.9225 25.2609 36.9695 25.0534 36.9581 24.8449C36.9578 24.6371 36.8979 24.4337 36.7857 24.2589C36.6715 24.0728 36.5109 23.9196 36.3198 23.8143C36.1154 23.7031 35.8929 23.6289 35.6627 23.5952C35.3923 23.5547 35.1191 23.5354 34.8457 23.5376H33.3934V27.8354H34.4667L34.459 26.2049Z" fill="#0070C0"/>
<path d="M40.0414 26.1519H38.499L39.1359 24.7033C39.1813 24.5873 39.2207 24.469 39.2539 24.3489C39.3083 24.5043 39.344 24.6007 39.358 24.6318L40.0414 26.1519ZM42.0001 27.8353L39.8752 23.5391H38.687L36.618 27.8353H37.7177L38.1744 26.856H40.3676L40.8336 27.8353H42.0001Z" fill="#0070C0"/>
<path d="M23.4013 25.5208L25.5759 23.5375H24.2758L23.5334 24.2432C23.7168 23.8602 23.8158 23.4422 23.8237 23.0176C23.8316 22.593 23.7481 22.1717 23.579 21.7821C23.4099 21.3926 23.1591 21.044 22.8436 20.76C22.5281 20.476 22.1552 20.2632 21.7503 20.136C21.3454 20.0088 20.9179 19.9702 20.4968 20.0228C20.0757 20.0755 19.6708 20.2181 19.3096 20.441C18.9484 20.664 18.6393 20.962 18.4033 21.315C18.1672 21.668 18.0098 22.0676 17.9417 22.4867C18.0633 22.0183 18.3043 21.5894 18.6411 21.242C18.9779 20.8946 19.3991 20.6406 19.8633 20.5048C20.3276 20.369 20.8192 20.3561 21.2899 20.4673C21.7607 20.5785 22.1946 20.81 22.5492 21.1392C22.9038 21.4684 23.1669 21.884 23.313 22.3455C23.4591 22.8069 23.483 23.2984 23.3825 23.7718C23.2819 24.2453 23.0603 24.6846 22.7394 25.0467C22.4185 25.4088 22.0091 25.6815 21.5514 25.8379C21.466 25.8581 21.3805 25.8752 21.292 25.8877V27.8353H22.3638V26.1597C22.3638 26.0325 22.3571 25.9053 22.3436 25.7789C22.4259 25.8752 22.4989 25.9732 22.5921 26.0633L24.3007 27.8337H25.6831L23.4013 25.5208Z" fill="#0070C0"/>
<path d="M20.3397 22.1247V25.1292C19.8355 24.9709 19.3948 24.6559 19.0817 24.2299C18.7686 23.804 18.5993 23.2892 18.5985 22.7604C18.5976 22.359 18.6952 21.9635 18.8827 21.6086C18.5921 21.9297 18.3951 22.3243 18.313 22.7497C18.2309 23.175 18.2669 23.6147 18.4171 24.0209C18.5673 24.4272 18.826 24.7844 19.165 25.0538C19.5039 25.3232 19.9102 25.4945 20.3397 25.5489C20.4396 25.5619 20.5402 25.5687 20.641 25.5691C21.2225 25.5694 21.7838 25.3552 22.2175 24.9676V22.1247H20.3397Z" fill="#0070C0"/>
</svg>
