<svg width="60" height="60" viewBox="0 0 60 60" fill="none" xmlns="http://www.w3.org/2000/svg">
<rect width="60" height="60" rx="20" fill="white"/>
<path d="M20.2779 24H18.8049V20.1227H17V19.0209H22.0828V20.1227H20.2779V24Z" fill="#9A9BCA"/>
<path d="M26.7615 24L26.4944 23.0656H24.7238L24.4491 24H22.8311L24.6093 19H26.5707L28.3719 24H26.7615ZM25.9525 21.1478C25.9271 21.0595 25.8915 20.934 25.8457 20.7713C25.7999 20.6039 25.7541 20.4319 25.7083 20.2552C25.6625 20.0786 25.6269 19.9344 25.6015 19.8229C25.5811 19.9344 25.5481 20.0739 25.5023 20.2413C25.4616 20.4086 25.4183 20.5737 25.3725 20.7364C25.3318 20.8991 25.2962 21.0363 25.2657 21.1478L25.0291 21.9637H26.1891L25.9525 21.1478Z" fill="#9A9BCA"/>
<path d="M35 24H33.2981L32.2373 22.4449L31.1841 24H29.5203L31.3291 21.4547L29.6271 19.0209H31.2604L32.2449 20.5621L33.1912 19.0209H34.8703L33.1455 21.5593L35 24Z" fill="#9A9BCA"/>
<path fill-rule="evenodd" clip-rule="evenodd" d="M20.478 24.2H18.605V20.3228H16.8V18.821H22.2829V20.3228H20.478V24.2ZM18.805 20.1228V24H20.278V20.1228H22.0829V19.021H17V20.1228H18.805ZM26.6107 24.2L26.3436 23.2656H24.8735L24.5988 24.2H22.5477L24.4682 18.8H26.7113L28.6565 24.2H26.6107ZM24.7239 23.0656H26.4945L26.7616 24H28.3719L26.5708 19H24.6094L22.8311 24H24.4491L24.7239 23.0656ZM25.7604 21.2032C25.7348 21.1143 25.6991 20.9883 25.6532 20.8255L25.6528 20.8241C25.6368 20.7655 25.6208 20.7064 25.6048 20.6467C25.592 20.6939 25.5791 20.741 25.5659 20.7878C25.5253 20.9502 25.4895 21.0879 25.4586 21.2007L25.4578 21.2036L25.2954 21.7638H25.9229L25.7604 21.2032ZM26.1892 21.9638H25.0291L25.2657 21.1479C25.2963 21.0363 25.3319 20.8992 25.3726 20.7365C25.4176 20.5764 25.4602 20.4141 25.5003 20.2495C25.501 20.2468 25.5016 20.2441 25.5023 20.2413C25.5481 20.074 25.5812 19.9345 25.6015 19.8229C25.6267 19.9334 25.6619 20.0759 25.7071 20.2503C25.7075 20.252 25.7079 20.2536 25.7084 20.2553C25.7542 20.4319 25.8 20.604 25.8457 20.7713C25.8915 20.934 25.9272 21.0596 25.9526 21.1479L26.1892 21.9638ZM35.4032 24.2H33.1925L32.2379 22.8007L31.2902 24.2H29.1329L31.0844 21.4538L29.2433 18.821H31.37L32.2416 20.1854L33.0794 18.821H35.248L33.3917 21.5528L35.4032 24.2ZM33.1455 21.5593L34.8703 19.021H33.1913L32.2449 20.5621L31.2604 19.021H29.6272L31.3291 21.4547L29.5203 24H31.1841L32.2373 22.445L33.2981 24H35L33.1455 21.5593Z" fill="#9A9BCA"/>
<path fill-rule="evenodd" clip-rule="evenodd" d="M21.6163 12C21.2527 12.1513 21 12.5094 21 12.924C21 13.4763 21.4477 13.924 22 13.924C22.5523 13.924 23 13.4763 23 12.924C23 12.5094 22.7473 12.1513 22.3837 12C22.717 12 23.8344 12 24.855 12C24.9491 12.291 25 12.6015 25 12.924C25 14.5809 23.6569 15.924 22 15.924C20.3431 15.924 19 14.5809 19 12.924C19 12.6463 19.107 12.1816 19.1516 12C20.3692 12 21.381 12 21.6163 12Z" fill="#9A9BCA"/>
<path fill-rule="evenodd" clip-rule="evenodd" d="M28.6163 12C28.2527 12.1513 28 12.5094 28 12.924C28 13.4763 28.4477 13.924 29 13.924C29.5523 13.924 30 13.4763 30 12.924C30 12.5094 29.7473 12.1513 29.3837 12C29.717 12 30.8344 12 31.855 12C31.9491 12.291 32 12.6015 32 12.924C32 14.5809 30.6569 15.924 29 15.924C27.3431 15.924 26 14.5809 26 12.924C26 12.6463 26.107 12.1816 26.1516 12C27.3692 12 28.381 12 28.6163 12Z" fill="#9A9BCA"/>
<path fill-rule="evenodd" clip-rule="evenodd" d="M35.6163 12C35.2527 12.1513 35 12.5094 35 12.924C35 13.4763 35.4477 13.924 36 13.924C36.5523 13.924 37 13.4763 37 12.924C37 12.5094 36.7473 12.1513 36.3837 12C36.717 12 37.8344 12 38.855 12C38.9491 12.291 39 12.6015 39 12.924C39 14.5809 37.6569 15.924 36 15.924C34.3431 15.924 33 14.5809 33 12.924C33 12.6463 33.107 12.1816 33.1516 12C34.3692 12 35.381 12 35.6163 12Z" fill="#9A9BCA"/>
<path fill-rule="evenodd" clip-rule="evenodd" d="M14.6163 12C14.2527 12.1513 14 12.5094 14 12.924C14 13.4763 14.4477 13.924 15 13.924C15.5523 13.924 16 13.4763 16 12.924C16 12.5094 15.7473 12.1513 15.3837 12C15.717 12 16.8344 12 17.855 12C17.9491 12.291 18 12.6015 18 12.924C18 14.5809 16.6569 15.924 15 15.924C13.3431 15.924 12 14.5809 12 12.924C12 12.6463 12.107 12.1816 12.1516 12C13.3692 12 14.381 12 14.6163 12Z" fill="#9A9BCA"/>
<path fill-rule="evenodd" clip-rule="evenodd" d="M12 12H13.5V13H14V44H29.1994C29.5652 44.7156 30.0071 45.3858 30.5143 46H12V12ZM40 28.0448V12H37.5V14H38V28.0448C38.3294 28.0152 38.6629 28 39 28C39.3371 28 39.6706 28.0152 40 28.0448ZM35 28.7499V28H17V30H32.6738C33.3909 29.4951 34.171 29.0736 35 28.7499ZM29.7789 33H17V35H28.7499C29.0252 34.2951 29.3711 33.6255 29.7789 33ZM28.0448 38H17V40H28.0448C28.0152 39.6706 28 39.3371 28 39C28 38.6629 28.0152 38.3294 28.0448 38ZM20.5 14H16.5V12H20.5V14ZM27 14H23.5V12H27V14ZM34.5 14H31V12H34.5V14Z" fill="#9A9BCA"/>
<path fill-rule="evenodd" clip-rule="evenodd" d="M39 46.3125C43.0386 46.3125 46.3125 43.0386 46.3125 39C46.3125 34.9614 43.0386 31.6875 39 31.6875C34.9614 31.6875 31.6875 34.9614 31.6875 39C31.6875 43.0386 34.9614 46.3125 39 46.3125ZM39 48C43.9706 48 48 43.9706 48 39C48 34.0294 43.9706 30 39 30C34.0294 30 30 34.0294 30 39C30 43.9706 34.0294 48 39 48Z" fill="#9A9BCA"/>
<path fill-rule="evenodd" clip-rule="evenodd" d="M38 39V35H40V41H34.5V39H38Z" fill="#9A9BCA"/>
</svg>
