<svg width="60" height="60" viewBox="0 0 60 60" fill="none" xmlns="http://www.w3.org/2000/svg">
<rect width="60" height="60" rx="20" fill="white"/>
<path fill-rule="evenodd" clip-rule="evenodd" d="M40 14H20V46H40V14ZM18 12V48H42V12H18Z" fill="#0070C0"/>
<path fill-rule="evenodd" clip-rule="evenodd" d="M20.751 39.9953C21.109 39.3792 21.7678 39 22.4804 39H37.5197C38.2323 39 38.8911 39.3792 39.2491 39.9953L39.2491 39.9953L41.8647 44.4977L40.1354 45.5023L37.5197 41L22.4804 41L19.8647 45.5023L18.1354 44.4977L20.751 39.9953L21.6104 40.4946" fill="#0070C0"/>
<path fill-rule="evenodd" clip-rule="evenodd" d="M21.123 18.0916C21.4921 18.6582 22.1226 19 22.7988 19H37.2012C37.8775 19 38.508 18.6582 38.8771 18.0916L38.0392 17.5458L38.8771 18.0916L41.838 13.5458L40.1621 12.4542L37.2012 17H22.7988L19.838 12.4542L18.1621 13.5458L21.123 18.0916L21.9609 17.5458L21.123 18.0916Z" fill="#0070C0"/>
<path d="M36 25L33.9068 33H31.1952L30.3865 29.5154C30.3707 29.4482 30.3469 29.3361 30.3152 29.1793C30.2834 29.0224 30.2438 28.8431 30.1962 28.6415C30.1566 28.4398 30.1209 28.2418 30.0892 28.0476C30.0575 27.8534 30.0337 27.6891 30.0178 27.5546C30.002 27.6891 29.9742 27.8534 29.9346 28.0476C29.9029 28.2418 29.8672 28.4398 29.8276 28.6415C29.7879 28.8431 29.7483 29.0224 29.7086 29.1793C29.6769 29.3361 29.6531 29.4482 29.6373 29.5154L28.8167 33H26.1051L24 25H26.1051L27.1397 29.0112C27.1635 29.1083 27.1952 29.2502 27.2349 29.437C27.2745 29.6162 27.3142 29.8105 27.3538 30.0196C27.4014 30.2288 27.445 30.4342 27.4846 30.6359C27.5243 30.8301 27.552 30.9944 27.5679 31.1289C27.5996 30.9048 27.6392 30.6471 27.6868 30.3557C27.7423 30.0644 27.8018 29.7731 27.8652 29.4818C27.9286 29.183 27.9881 28.9066 28.0436 28.6527C28.107 28.3987 28.1586 28.1895 28.1982 28.0252L28.9475 25H31.0763L31.8018 28.0252C31.8414 28.1821 31.889 28.3912 31.9445 28.6527C32.0079 28.9066 32.0714 29.183 32.1348 29.4818C32.1982 29.7806 32.2577 30.0756 32.3132 30.3669C32.3687 30.6583 32.4083 30.9122 32.4321 31.1289C32.4559 30.9421 32.4955 30.7106 32.551 30.4342C32.6065 30.1578 32.662 29.8889 32.7175 29.6275C32.773 29.3585 32.8167 29.1569 32.8484 29.0224L33.9068 25H36Z" fill="#0070C0"/>
<path d="M22.5333 27H38L37.4667 28.5H22L22.5333 27Z" fill="#0070C0"/>
</svg>
